<svg width="22" height="22" viewBox="0 0 22 22" fill="none" xmlns="http://www.w3.org/2000/svg">
<path d="M0.193698 10.128L2.38881 11.3012L2.45997 11.5256L1.35302 13.8082C1.29461 13.9284 1.30636 14.0709 1.38357 14.18L2.11421 15.2119C2.19461 15.325 2.33191 15.3833 2.46921 15.3621L4.9134 14.986L5.08947 15.1176L5.4965 17.6304C5.51815 17.7652 5.61299 17.8768 5.74257 17.9201L6.92438 18.3142C7.05664 18.3584 7.20267 18.3236 7.30086 18.2244L9.06343 16.4417H9.27391L10.9492 18.136L10.5459 18.9754C10.4884 19.0947 10.4999 19.2359 10.5759 19.3446L10.8693 19.7632C10.9494 19.8777 11.0877 19.9368 11.2256 19.9155L12.721 19.683L13.1067 19.9737L13.3568 21.531C13.3783 21.6655 13.4726 21.7769 13.6017 21.8204L14.0784 21.9808C14.2108 22.024 14.356 21.9887 14.4542 21.89L15.5329 20.7878H16.0009L17.0803 21.89C17.1787 21.9904 17.3259 22.0257 17.459 21.9808L17.9357 21.8207C18.0647 21.7772 18.1591 21.6658 18.1806 21.5313L18.4307 19.9734L18.816 19.683L20.3114 19.9158C20.4495 19.9373 20.588 19.8782 20.6681 19.7638L20.9615 19.3446C21.0375 19.2359 21.0491 19.0949 20.9915 18.9754L20.3092 17.5596L20.4611 17.0757L21.8082 16.3481C21.9266 16.2841 22.0003 16.1604 22.0003 16.0258V15.5073C22.0003 15.3727 21.9262 15.249 21.8079 15.185L20.4603 14.4579L20.3085 13.974L20.9895 12.5579C21.0469 12.4384 21.0353 12.2972 20.9594 12.1886L20.666 11.7698C20.586 11.6554 20.4477 11.5965 20.3097 11.6178L18.8144 11.8502L18.4286 11.5594L18.1925 10.089C18.2806 10.0207 18.3326 9.91598 18.3336 9.80453V8.52855C18.3336 8.39326 18.2593 8.26889 18.1401 8.20511L15.9447 7.03185L15.8735 6.80744L16.9804 4.52556C17.0387 4.40538 17.0271 4.26288 16.9499 4.15378L16.2191 3.12202C16.1389 3.00872 16.0014 2.95048 15.8643 2.97163L13.4199 3.3471L13.244 3.21551L12.837 0.702666C12.8153 0.567884 12.7205 0.456266 12.5909 0.412961L11.4109 0.0188553C11.2785 -0.0252886 11.1326 0.00945584 11.0345 0.108654L9.27189 1.89136H9.06141L7.29885 0.109829C7.20082 0.0106308 7.0548 -0.0244493 6.92236 0.0196946L5.74055 0.412625C5.61097 0.45593 5.51631 0.567548 5.49449 0.70233L5.08762 3.21551L4.91155 3.3471L2.46921 2.96978C2.33191 2.94863 2.19461 3.00687 2.11421 3.12017L1.3834 4.1531C1.30636 4.2622 1.29461 4.40471 1.35302 4.52489L2.45997 6.8066L2.38881 7.03068L0.193698 8.20393C0.0740232 8.26805 -0.000501009 8.39276 2.53576e-06 8.52855V9.80453C2.53576e-06 9.93981 0.0743589 10.064 0.193698 10.128ZM17.8695 12.0562L18.4973 12.5294C18.5765 12.5886 18.6764 12.6136 18.7742 12.5985L20.1967 12.3786L20.2357 12.4347L19.5853 13.7865C19.5448 13.8705 19.5379 13.9665 19.5658 14.0553L19.806 14.8195C19.8349 14.9113 19.8986 14.988 19.9834 15.0333L21.2668 15.7262V15.8069L19.9812 16.5C19.8973 16.5453 19.8345 16.6215 19.806 16.7126L19.5658 17.4767C19.5381 17.5655 19.545 17.6616 19.5851 17.7456L20.236 19.0989L20.1967 19.155L18.7741 18.9349C18.6762 18.92 18.5765 18.945 18.4973 19.0042L17.8695 19.4767C17.7938 19.534 17.7433 19.6182 17.7284 19.7119L17.49 21.1968L17.4427 21.2126L16.416 20.1664C16.3472 20.0963 16.253 20.0566 16.1546 20.0565H15.3787C15.2802 20.0565 15.1858 20.0963 15.1168 20.1664L14.0903 21.2141L14.0426 21.198L13.8043 19.7137C13.7893 19.6201 13.7388 19.5358 13.6631 19.4786L13.0354 19.0056C12.9561 18.9463 12.8563 18.9213 12.7584 18.9363L11.3357 19.1563L11.297 19.1002L11.7248 18.2103L12.5921 17.9211C12.7215 17.8778 12.8163 17.7662 12.838 17.6314L13.0812 16.1332C13.2806 17.6185 14.6464 18.6607 16.1315 18.4613C17.6168 18.2617 18.6591 16.8961 18.4595 15.4108C18.3251 14.4096 17.6456 13.5662 16.6961 13.2214L15.8733 11.5253L15.9445 11.3012L17.505 10.4663L17.7282 11.8202C17.743 11.9142 17.7937 11.9988 17.8695 12.0562ZM13.7866 15.7665C13.7868 15.5258 13.8306 15.2871 13.9162 15.0622L15.8643 15.3625C16.0016 15.3844 16.1394 15.326 16.2193 15.2121L16.9501 14.18C17.8269 14.8334 18.0078 16.074 17.3542 16.9508C16.7008 17.8276 15.4603 18.0086 14.5834 17.3551C14.0819 16.9812 13.7865 16.3922 13.7866 15.7665ZM0.733328 8.74809L2.86633 7.60707C2.95076 7.56208 3.01437 7.48571 3.04291 7.3944L3.20287 6.88868C3.23123 6.79922 3.22435 6.70237 3.1834 6.61777L2.10733 4.39984L2.58166 3.72962L4.95184 4.0962C5.04936 4.11131 5.14872 4.08647 5.22761 4.02739L5.64521 3.71452C5.72158 3.65762 5.77261 3.57336 5.78788 3.47953L6.18316 1.03937L6.93814 0.787428L8.6475 2.51659C8.71615 2.58675 8.81014 2.62636 8.90817 2.62653H9.4253C9.52333 2.62636 9.61732 2.58675 9.68597 2.51659L11.3953 0.787428L12.1503 1.03937L12.5456 3.47953C12.5609 3.57336 12.6119 3.65762 12.6881 3.71452L13.1059 4.02739C13.1847 4.08647 13.2841 4.11131 13.3815 4.0962L15.7516 3.72962L16.2261 4.39984L15.1499 6.61828C15.109 6.70254 15.1019 6.79939 15.1306 6.88885L15.2904 7.3944C15.3193 7.48588 15.3827 7.56225 15.4671 7.6074L17.6 8.74809V9.58481L15.4671 10.726C15.3825 10.7708 15.3191 10.8472 15.2904 10.9387L15.1306 11.4442C15.1021 11.5337 15.1091 11.6307 15.1499 11.7153L16.2261 13.9332L15.7516 14.6036L13.3815 14.2369C13.2841 14.2218 13.1847 14.2466 13.1059 14.3059L12.6881 14.6186C12.6119 14.6755 12.5609 14.7597 12.5456 14.8535L12.1503 17.2939L11.3953 17.5456L9.68597 15.8165C9.61732 15.7465 9.52333 15.7069 9.4253 15.7065H8.91001C8.81199 15.7069 8.71799 15.7465 8.64935 15.8165L6.93999 17.5456L6.18501 17.2939L5.78973 14.8535C5.77446 14.7597 5.72343 14.6755 5.64723 14.6186L5.22946 14.3059C5.15057 14.2468 5.0512 14.2218 4.95385 14.2369L2.58368 14.6036L2.10733 13.9332L3.1834 11.715C3.22435 11.6305 3.23123 11.5337 3.20287 11.4444L3.04341 10.9387C3.01454 10.8474 2.9511 10.7708 2.86667 10.7257L0.733328 9.58498V8.74809Z" fill="#B63D3D"/>
<path d="M9.16665 12.4666C10.9893 12.4666 12.4667 10.989 12.4667 9.16655C12.4667 7.34389 10.9893 5.8665 9.16665 5.8665C7.34417 5.8665 5.86661 7.34389 5.86661 9.16655C5.86879 10.9882 7.34501 12.4646 9.16665 12.4666ZM9.16665 6.59983C10.5843 6.59983 11.7334 7.74908 11.7334 9.16655C11.7334 10.584 10.5843 11.7333 9.16665 11.7333C7.74918 11.7333 6.6001 10.584 6.6001 9.16655C6.60161 7.74975 7.74986 6.6015 9.16665 6.59983Z" fill="#B63D3D"/>
<path d="M9.16665 14.4223C12.0692 14.4223 14.4221 12.0694 14.4221 9.16679C14.4221 6.26438 12.0692 3.91132 9.16665 3.91132C6.26423 3.91132 3.91135 6.26438 3.91135 9.16679C3.9147 12.0679 6.26557 14.4189 9.16665 14.4223ZM9.16665 4.64465C11.6642 4.64465 13.6888 6.66922 13.6888 9.16679C13.6888 11.6644 11.6642 13.6889 9.16665 13.6889C6.66925 13.6889 4.6445 11.6644 4.6445 9.16679C4.64719 6.6704 6.67025 4.64733 9.16665 4.64465Z" fill="#B63D3D"/>
</svg>
